<svg xmlns="http://www.w3.org/2000/svg" viewBox="0 0 810.24 1295.36"><defs><style>.cls-1{fill:#fff;}</style></defs><g id="Layer_2" data-name="Layer 2"><g id="Layer_1-2" data-name="Layer 1"><path class="cls-1" d="M810.24,0H0V1295.36H810.24ZM582.91,132.05a2.5,2.5,0,0,1,2.52-2.51l99.56.15a1.39,1.39,0,0,0,1.43-1.37l-.13-24A1.37,1.37,0,0,0,685,103q-50.29-1.64-99.64-.28a2.36,2.36,0,0,1-2.42-2.31l.13-20a3,3,0,0,1,3-2.92H735a2.2,2.2,0,0,1,2.21,2.16l.58,126a2.16,2.16,0,0,1-2.33,2.16c-6.48-.38-12-.56-16.69-.51q-67.32.57-133.65.36a2.22,2.22,0,0,1-2.24-2.24ZM380.51,78.23q75.86-1.64,151.76-.31a1.37,1.37,0,0,1,1.32,1.28l.28,73.42a1.61,1.61,0,0,1-1.63,1.63l-100.32.84a1.32,1.32,0,0,0-1.27,1.29l-.31,23.35a1.87,1.87,0,0,0,1.83,1.9l100.5.61a1.28,1.28,0,0,1,1.32,1.3l-.1,21.92a2.17,2.17,0,0,1-2.18,2.15L381,207a1.29,1.29,0,0,1-1.33-1.27L379.24,79.5A1.27,1.27,0,0,1,380.51,78.23Zm-1.43,164.54a2.1,2.1,0,0,1,2.11-2.11H531.91a2.1,2.1,0,0,1,2.11,2.11V368.7a2.1,2.1,0,0,1-2.11,2.1H381.19a2.1,2.1,0,0,1-2.11-2.1ZM534,531.51a2.51,2.51,0,0,1-2.51,2.51H381a1.73,1.73,0,0,1-1.75-1.73l0-98.75a3.17,3.17,0,0,1,3.25-3.15c36.19.34,68.09.14,99.31.14a1.35,1.35,0,0,0,1.32-1.35l.13-21.9a2.8,2.8,0,0,1,2.74-2.8l46.64.16a1.25,1.25,0,0,1,1.27,1.24ZM379.08,569.83a2.16,2.16,0,0,1,2.16-2.16h46.69a2.64,2.64,0,0,1,2.61,2.67l.11,22.33a1.7,1.7,0,0,0,1.72,1.67l100.2.16a1.28,1.28,0,0,1,1.3,1.27l-.31,99.05a1.33,1.33,0,0,1-1.29,1.35H485a1.34,1.34,0,0,1-1.29-1.32l-.61-74.32a1.31,1.31,0,0,0-1.3-1.29l-49.85,0a1.25,1.25,0,0,0-1.27,1.27L430,694.82a1.33,1.33,0,0,1-1.3,1.32l-48.06.41a1.62,1.62,0,0,1-1.6-1.63Zm150.5,548.3a4.14,4.14,0,0,1-3.64,1.37q-16.23-2-32.1-14.4a6.66,6.66,0,0,1-2.39-4c-.71-3.74.56-4.93,3.84-3.56a28.29,28.29,0,0,0,4,1.37,153.77,153.77,0,0,1,31.27,10.29C533.84,1110.74,533.54,1113.71,529.58,1118.13ZM330.83,532.6a1.42,1.42,0,0,1-1.43,1.27L176.65,534a1.4,1.4,0,0,1-1.39-1.4V509.26a1.25,1.25,0,0,1,1.27-1.27H277.64a2.09,2.09,0,0,0,2.18-2l-.43-22.58a1.4,1.4,0,0,0-1.45-1.29l-101.24-.74a1.46,1.46,0,0,1-1.44-1.45V405.14a1.29,1.29,0,0,1,1.29-1.29L329,404a2.28,2.28,0,0,1,2.34,2.26L331,428a1.36,1.36,0,0,1-1.37,1.29l-100.83.79a1.28,1.28,0,0,0-1.3,1.25v23.16a1.32,1.32,0,0,0,1.3,1.29l100.2.77a2.56,2.56,0,0,1,2.51,2.54q.19,17.18-.28,34.36-.15,4.85.38,20.19A135.39,135.39,0,0,1,330.83,532.6Zm.63,162a2.61,2.61,0,0,1-2.62,2.59H177.21a1.79,1.79,0,0,1-1.8-1.78l-.15-126.69A1.7,1.7,0,0,1,177,567h48.11a2.24,2.24,0,0,1,2.23,2.23l.13,23a1.35,1.35,0,0,0,1.3,1.3l101.16.15a1.41,1.41,0,0,1,1.4,1.4Zm-.06-325a1.28,1.28,0,0,1-1.28,1.27l-48.92-.08a1.27,1.27,0,0,1-1.26-1.28l.13-74.92a1.28,1.28,0,0,1,1.27-1.27l48.92.08a1.28,1.28,0,0,1,1.27,1.28ZM280,265.91V241.47a.79.79,0,0,1,.78-.79h49.84a.8.8,0,0,1,.79.79v24.44a.79.79,0,0,1-.79.78H280.81A.78.78,0,0,1,280,265.91ZM175.26,104.72a1.69,1.69,0,0,1,1.7-1.67l101-.34a1.35,1.35,0,0,0,1.42-1.27l.51-21.79A2.14,2.14,0,0,1,282,77.47H329.3a2.15,2.15,0,0,1,2.16,2.16V205.56a1.93,1.93,0,0,1-1.9,1.93l-152.91.15a1.41,1.41,0,0,1-1.39-1.4ZM75.58,78.36a1,1,0,0,1,.94-.94l50.3.09a.93.93,0,0,1,.93.94l0,23.52a.93.93,0,0,1-.94.94l-50.29-.09a.94.94,0,0,1-.94-.94Zm52.05,52.29v75.9a1.08,1.08,0,0,1-1.09,1.09H76.66a1.09,1.09,0,0,1-1.1-1.09v-75.9a1.09,1.09,0,0,1,1.1-1.09h49.88A1.08,1.08,0,0,1,127.63,130.65ZM74.93,246.91a1.36,1.36,0,0,1,1.34-1.35q41.91.3,82.48-.1,35.31-.35,70.66.71a1.38,1.38,0,0,1,1.37,1.32v22.56a1.38,1.38,0,0,1-1.42,1.29l-48.24.58a1.3,1.3,0,0,0-1.27,1.3l-.15,100.35a1.7,1.7,0,0,1-1.7,1.7H129.59a1.31,1.31,0,0,1-1.32-1.32V273.73a1.8,1.8,0,0,0-1.78-1.81l-49.86-.15a1.69,1.69,0,0,1-1.7-1.67Zm653.32,919.83a19.05,19.05,0,0,1-7.54.84q-29.88-1.18-59.72-2.49-27.16-1.21-50.77-.48-53.64,1.71-107.19,5.31a18.58,18.58,0,0,0-9.55,3.3q-5.06,3.54-10,7.34c-3.15,2.46-5.87,3.71-8.13,3.78-4.49.13-6.8-2.82-6.91-8.78,0-1.43-.66-1.76-1.87-1-5.47,3.38-10.75,7-15.85,10.85-2.92,2.21-5.31,3.45-7.17,3.7-3.7.54-6.24-1.32-7.62-5.51a3.62,3.62,0,0,1,.08-2.41,16.86,16.86,0,0,1,9-9.3c.83-.38,1.27-1.19.86-1.65-.53-.61-1.63-.81-3.33-.58q-8.71,1.09-33.27,3c-13.94,1.07-20.95,1.6-21,1.63q-11.28,2.65-17.86,13.23c-1.5,2.39-3,3.91-4.52,4.55-3.17,1.37-5.51.63-7.06-2.19q-1.79-3.24-.15-7.52a33.13,33.13,0,0,1,3.15-6,.82.82,0,0,0-.53-1.27,38.42,38.42,0,0,0-9-.45,18.43,18.43,0,0,0-8.33,2.79q-11.4,6.78-22.25,14.33a4.08,4.08,0,0,1-2.34.73c-7.7.08-9.47-2.26-5.36-7a12.73,12.73,0,0,1,4-2.74,15.22,15.22,0,0,0,4.09-2.9q4.19-4.22-1.3-2.08l-24.66,9.55a10.87,10.87,0,0,1-6,.66c-2.72-.58-4.19-2-4.45-4.16a6.11,6.11,0,0,1,1.88-4.73,26.67,26.67,0,0,1,6.55-5.33,3.92,3.92,0,0,0,1.58-1.47c.71-1.5-.28-2-3-1.45a740.85,740.85,0,0,0-81.64,21.84,4,4,0,0,1-2.87-.15c-4.21-1.88-5.13-4.42-2.74-7.65a11.53,11.53,0,0,1,5.51-3.6q25.65-9.35,51.92-19.15c4.67-1.76,4.52-2.59-.48-2.47q-28.05.62-58,2.77-40.27,2.89-50.67,3.33-36,1.51-69.8,1.29a44.75,44.75,0,0,1-13.08-2c-4.4-1.34-6.61-4-6.68-7.9-.1-4.52,2-6,6.17-4.32a102.35,102.35,0,0,0,24.28,6.61c6.43.79,16.49.61,30.13-.48q19-1.53,30-1.88,45.75-1.45,58.59-2.72,30.1-3,60.33-3.81a74,74,0,0,0,13.69-2q6.9-1.56,9.6-1.32,8.07.72,6.32,9.6a2.55,2.55,0,0,0,3.08,3q11.92-2.7,23.24-4.21a113.49,113.49,0,0,0,21-4.68q15.36-5.22,20.37-7.18,11.32-4.42,11.28,8.3a3.38,3.38,0,0,1-1.6,2.87c-5.84,3.66-8.23,6-7.14,7.19a2.09,2.09,0,0,0,2.26,0,133.65,133.65,0,0,1,80-10.36c5.1.89,6.73,3.43,4.92,7.62a5,5,0,0,1-5.33,2.94,105.42,105.42,0,0,0-25.48-1c-1.39.12-1.55.51-.43,1.09a2.07,2.07,0,0,0,.79.23,64.91,64.91,0,0,1,21.28,4.57,3,3,0,0,0,2.34,0,90.76,90.76,0,0,0,23.44-15.57,2.45,2.45,0,0,1,2.19-.56c2.62.56,4.62.36,6.07-.63a64.55,64.55,0,0,1,16-8c3.76-1.3,6.68-1.19,8.78.25q4.35,3,1.93,10.87a1.7,1.7,0,0,0,1.66,2.19q44.64-1.11,88-2.06,21.69-.45,50.78.76,27.24,1.15,54.48,1.25c.13,0,1.06.07,2.84.23q4.2.35,4-3.89a1.37,1.37,0,0,1,1.06-1.52,18.1,18.1,0,0,1,12.47,1.77c3.18,1.73,4.93,4.2,5.21,7.4C733.07,1163,731.58,1165.4,728.25,1166.74Zm9.55-473.31a2.51,2.51,0,0,1-2.52,2.51l-150.64-.15a1.79,1.79,0,0,1-1.78-1.8V595a1.38,1.38,0,0,1,1.43-1.39l100.4.15a1.7,1.7,0,0,0,1.68-1.68V568.46a1.41,1.41,0,0,1,1.42-1.42h47.85a2.16,2.16,0,0,1,2.16,2.16ZM735.46,534H688.58a2.15,2.15,0,0,1-2.16-2.16V509.61a4.63,4.63,0,0,0-1.32-3.25l-48.49-47.85c-1.81-1.78-2.72-1.37-2.72,1.19l-.18,73a1.31,1.31,0,0,1-1.32,1.32l-47.75-.15a1.74,1.74,0,0,1-1.73-1.75V406.21a1.72,1.72,0,0,1,1.73-1.73h44c5.72,0,9.93,1.53,12.6,4.55a609.28,609.28,0,0,0,44.09,45.24c.59.53.89.4.92-.41l.91-47.29a1.41,1.41,0,0,1,1.32-1.37,392.2,392.2,0,0,1,47.63-.31,1.37,1.37,0,0,1,1.29,1.37l.46,125.37A2.39,2.39,0,0,1,735.46,534ZM736,370.83l-47.35-.71a2.31,2.31,0,0,1-2.23-2.31V347.36a6.79,6.79,0,0,0-2-4.8l-49.05-48.44c-1-1-1.54-.81-1.54.66l-.16,74.14a1.25,1.25,0,0,1-1.27,1.27H585.07a2.16,2.16,0,0,1-2.16-2.15V244.21a3.57,3.57,0,0,1,3.56-3.55h45.92a9,9,0,0,1,6.45,2.79l44.91,46.91q2.67,2.79,2.67-1.09V245a4.13,4.13,0,0,1,4.11-4.16l45.11-.13a2.07,2.07,0,0,1,2.06,2.08L737.85,369A1.85,1.85,0,0,1,736,370.83Z"/></g></g></svg>